<?xml version="1.0" encoding="UTF-8" standalone="no"?>
<!-- Created with Inkscape (http://www.inkscape.org/) -->

<svg
   xmlns:dc="http://purl.org/dc/elements/1.1/"
   xmlns:cc="http://creativecommons.org/ns#"
   xmlns:rdf="http://www.w3.org/1999/02/22-rdf-syntax-ns#"
   xmlns:svg="http://www.w3.org/2000/svg"
   xmlns="http://www.w3.org/2000/svg"
   version="1.1"
   width="281.5802"
   height="195.3719"
   id="svg25521">
  <metadata
     id="metadata25527">
    <rdf:RDF>
      <cc:Work
         rdf:about="">
        <dc:format>image/svg+xml</dc:format>
        <dc:type
           rdf:resource="http://purl.org/dc/dcmitype/StillImage" />
        <dc:title></dc:title>
      </cc:Work>
    </rdf:RDF>
  </metadata>
  <defs
     id="defs25525" />
  <path
     d="M 63.763662,104.13392 C 49.832549,102.75892 34.0165,97.25801 24.434213,90.45494 7.2929628,78.285279 9.8209768,64.958497 31.324044,54.134242 38.963985,50.288434 53.832105,46.285659 64.78902,45.124847 l 3.609044,-0.382354 -0.88182,2.110491 c -0.485001,1.160771 -0.881819,2.201489 -0.881819,2.312706 0,0.56354 -3.575332,1.867339 -6.827884,2.489893 -9.952618,1.904976 -20.829751,7.104545 -26.504283,12.669776 -7.509075,7.364438 -7.637481,14.429293 -0.402824,22.163165 7.564287,8.086246 15.684882,11.549176 40.050669,17.079156 l 3.731992,0.847 -5.45445,-0.0412 c -2.999947,-0.0227 -6.358739,-0.13049 -7.463983,-0.23958 l 0,2e-5 z"
     id="path25585"
     style="fill:#ed1b2f;fill-opacity:1;fill-rule:nonzero;stroke:none" />
  <path
     d="M 121.33081,88.128811 C 113.19257,85.937081 109.29002,82.379942 102.92678,71.353687 97.06461,61.195703 84.825643,38.717248 81.091684,31.250686 l -2.90174,-5.802428 2.477904,-5.967699 C 85.742113,7.2598724 86.96457,4.6195064 87.352849,5.0417274 c 0.219004,0.238148 4.969602,8.8201166 10.556891,19.0710416 5.58728,10.250926 10.65567,19.335984 11.26308,20.189018 0.77797,1.092553 1.82456,1.668289 3.54094,1.947894 13.92189,2.267919 30.09444,8.937493 36.73525,15.149645 7.79916,7.295725 8.06577,13.080805 0.92512,20.073042 -5.11113,5.004904 -12.26895,7.5683 -20.95287,7.503766 -2.79648,-0.02079 -6.43718,-0.402079 -8.09045,-0.847323 l 0,0 z m 21.43725,-7.662996 c 13.97495,-6.611321 3.53692,-21.793973 -19.57961,-28.479533 -5.56217,-1.608643 -10.04766,-2.406226 -10.04766,-1.786614 0,1.87736 14.93976,27.040145 18.04148,30.386954 2.05986,2.222631 6.73529,2.17388 11.58579,-0.120807 l 0,0 z"
     id="path25587"
     style="fill:#ed1b2f;fill-opacity:1;fill-rule:nonzero;stroke:none" />
  <path
     d="M 5.0064718,189.64181 C 4.4526906,188.74577 39.621047,122.03796 40.27596,122.74218 c 1.333857,1.43426 31.06833,58.89828 32.991236,63.75795 0.536224,1.35519 0.792336,2.64703 0.56914,2.87076 -0.223202,0.22374 -4.195666,0.49155 -8.827699,0.59514 l -8.421882,0.18833 -3.828307,-7.70653 -3.828306,-7.70653 -5.302799,-0.3764 c -2.91654,-0.20703 -9.461599,-0.37593 -14.544576,-0.37536 l -9.241774,0.001 -4.019068,7.89354 -4.019068,7.89355 -3.2507182,0.17068 c -1.787895,0.0939 -3.383445,-0.0441 -3.545667,-0.30656 z M 45.259585,166.84709 c 0.348746,-0.34875 -10.249905,-20.99207 -10.777702,-20.99207 -0.53891,0 -10.908899,20.22991 -10.908899,21.28122 0,0.5616 2.326195,0.63306 10.727705,0.32957 5.900237,-0.21314 10.831741,-0.49157 10.958896,-0.61872 z"
     id="path25591"
     style="fill:#ed1b2f;fill-opacity:1;fill-rule:nonzero;stroke:none" />
  <path
     d="m 85.007306,156.68875 0,-33.376 15.645664,0.31615 c 16.70686,0.33759 20.3176,0.83321 25.56078,3.50852 5.20917,2.65796 7.59653,6.51359 7.59653,12.26855 0,2.63476 -0.31665,3.83182 -1.48565,5.61643 -1.74814,2.66874 -5.258,5.57872 -9.76197,8.09355 l -3.23535,1.80648 3.36595,0.94239 c 9.03239,2.52885 13.92419,5.45468 16.71206,9.99567 2.26208,3.68454 1.41399,9.91122 -1.95078,14.32266 -2.06598,2.70864 -7.68986,6.21993 -12.21514,7.62657 -4.28619,1.33233 -16.39941,2.20003 -31.189191,2.23417 l -9.042903,0.0209 0,-33.37601 z m 27.559324,27.27271 c 4.25216,-1.19666 6.31307,-2.88846 8.29816,-6.81193 2.26774,-4.4821 2.54625,-8.36619 0.87797,-12.2442 -1.41586,-3.29125 -3.47614,-5.34918 -8.16009,-8.15077 l -4.32566,-1.65579 4.0406,-2.84325 c 4.11901,-2.89842 5.11714,-6.3498 5.45275,-11.0247 0.21946,-3.05707 0.0428,-4.20866 -0.94196,-6.13888 -2.28824,-4.48532 -7.26563,-7.03565 -13.73124,-7.03565 l -3.75188,0 0.40104,27.63797 c 0.25539,17.59987 0.62214,28.05109 1.00978,28.7754 0.54288,1.01438 0.99082,1.09649 4.14071,0.75896 1.94259,-0.20815 4.95301,-0.77837 6.68982,-1.26716 z"
     id="path25593"
     style="fill:#ed1b2f;fill-opacity:1;fill-rule:nonzero;stroke:none" />
  <path
     d="m 166.82404,189.84053 c -7.56027,-1.25617 -10.98452,-2.07831 -12.12523,-2.91119 -0.94139,-0.68735 -1.09875,-1.69904 -1.224,-7.86957 -0.13968,-6.88135 -0.11541,-7.041 0.86123,-5.6675 6.44104,9.05831 11.50272,12.07927 20.23906,12.07927 9.72715,0 15.3737,-4.97583 14.15672,-12.47514 -0.53048,-3.269 -3.72791,-6.05964 -10.09115,-8.80733 -10.6065,-4.57996 -14.85877,-6.83823 -18.31642,-9.72737 -6.7869,-5.67101 -8.40101,-12.3641 -4.76358,-19.75276 4.13327,-8.39587 11.56309,-11.82002 25.64743,-11.82002 5.23423,0 16.05421,1.25217 16.73923,1.93719 0.092,0.092 0.3395,2.98791 0.55009,6.43545 l 0.38289,6.26825 -3.39678,-3.10827 c -6.16138,-5.63806 -13.61305,-7.97765 -20.29986,-6.37351 -7.22426,1.73308 -10.4644,8.72718 -6.26092,13.51469 2.14923,2.44783 4.2365,3.56702 12.8896,6.91137 17.22542,6.65747 22.59924,11.64155 22.61308,20.97301 0.005,3.07841 -0.32168,4.43879 -1.74994,7.297 -2.95022,5.9039 -10.15216,11.22966 -17.19149,12.71292 -4.96613,1.04642 -13.60203,1.22391 -18.65996,0.38351 z"
     id="path25595"
     style="fill:#ed1b2f;fill-opacity:1;fill-rule:nonzero;stroke:none" />
  <path
     d="m 255.03474,182.0851 -3.65372,-8.09661 -9.32005,0 c -5.12603,0 -11.69268,0.16842 -14.59256,0.37425 l -5.2725,0.37426 -3.26742,5.99409 c -4.39161,8.05642 -5.09269,8.75952 -8.73428,8.75952 l -2.90394,0 2.60693,-5.31091 c 9.91334,-20.19578 32.0895,-61.87561 32.91098,-61.85583 0.20798,0.005 2.38695,3.94513 4.84215,8.75582 2.4552,4.8107 8.99012,17.53126 14.52205,28.26791 10.45947,20.30028 14.86575,29.49637 14.37041,29.9917 -0.15971,0.15972 -4.24228,0.4146 -9.07237,0.56641 l -8.78197,0.276 -3.65371,-8.09661 z m -13.37199,-14.78534 c 3.97177,-0.28192 5.25557,-0.57143 5.25557,-1.18517 0,-0.87543 -8.01741,-16.95091 -9.37017,-18.78787 -0.77358,-1.05046 -0.91873,-0.93929 -2.62372,2.00954 -2.15251,3.72284 -9.24975,17.54053 -9.24975,18.00845 0,0.44255 9.49621,0.41586 15.98807,-0.045 l 0,0 z"
     id="path25597"
     style="fill:#ed1b2f;fill-opacity:1;fill-rule:nonzero;stroke:none" />
  <path
     d="m 79.233054,91.146713 a 11.913665,11.913665 0 1 1 -23.827329,0 11.913665,11.913665 0 1 1 23.827329,0 z"
     transform="matrix(0.96641127,0,0,0.96641127,-5.144071,-10.06569)"
     id="path26107"
     style="fill:#ed1b2f;fill-opacity:1;fill-rule:nonzero;stroke:none" />
</svg>
